<?xml version="1.0" encoding="UTF-8" standalone="no"?>
<svg width="343px" height="336px" viewBox="0 0 343 336" version="1.1" xmlns="http://www.w3.org/2000/svg" xmlns:xlink="http://www.w3.org/1999/xlink" xmlns:sketch="http://www.bohemiancoding.com/sketch/ns">
    <!-- Generator: Sketch 3.3.2 (12043) - http://www.bohemiancoding.com/sketch -->
    <title>MLB_Logo_Kasas_City</title>
    <desc>Created with Sketch.</desc>
    <defs></defs>
    <g id="Page-1" stroke="none" stroke-width="1" fill="none" fill-rule="evenodd" sketch:type="MSPage">
        <g id="MLB_Logo_Kasas_City" sketch:type="MSArtboardGroup" fill="#005794">
            <g id="Imported-Layers" sketch:type="MSLayerGroup" transform="translate(84.000000, 78.000000)">
                <path d="M16.832,23.305 C16.832,10.645 9.146,6.594 2.255,6.676 L0,6.594 L0,0.036 L44.901,0.036 L44.912,6.729 C38.472,7.253 31.901,11.597 31.901,23.305 L31.89,62.698 L35.013,60.763 C41.487,50.646 58.468,23.844 62.001,16.113 C66.337,6.618 59.704,6.618 53.326,6.618 L53.326,0 L93.131,0 L93.131,6.618 L90.328,6.618 C85.994,6.618 80.637,6.618 73.489,16.4 C64.335,28.926 46.178,59.268 46.178,59.268 C73.992,61.569 84.457,103.863 91.608,109.616 C87.521,79.407 107.686,41.719 137.291,43.157 C140.597,43.318 144.685,42.868 154.13,45.745 C163.574,48.623 164.431,43.443 165.705,37.692 L172.765,37.692 L172.765,87.464 L166.655,87.464 C166.145,78.833 162.283,50.335 137.371,49.485 C112.024,48.623 107.26,81.119 106.917,103.287 C105.643,185.284 157.19,182.692 166.634,156.222 C168.011,152.374 167.412,151.301 165.868,150.469 C154.636,144.429 167.658,128.318 174.872,142.416 C178.181,148.88 172.249,179.528 141.368,179.528 C93.387,179.528 79.356,105.3 61.487,81.133 C47.58,62.315 36.227,70.776 31.963,75.38 L31.775,88.319 L31.887,111.344 C31.887,124.002 39.572,128.055 46.466,127.971 L48.736,128.055 L48.736,134.612 L0,134.612 L0,128.055 L2.255,127.971 C9.146,128.055 16.832,124.002 16.832,111.344 L16.832,23.305" id="Fill-1" sketch:type="MSShapeGroup"></path>
                <path d="M177.249,171.838 L174.685,171.838 L174.685,178.833 L172.943,178.833 L172.943,171.838 L170.38,171.838 L170.38,170.321 L177.249,170.321 L177.249,171.838 L177.249,171.838 Z M188.891,178.833 L187.155,178.833 L187.155,172.06 L187.114,172.06 L184.65,178.833 L182.975,178.833 L180.584,172.06 L180.542,172.06 L180.542,178.833 L178.808,178.833 L178.808,170.321 L181.822,170.321 L183.797,175.88 L183.839,175.88 L185.899,170.321 L188.891,170.321 L188.891,178.833 L188.891,178.833 Z" id="Fill-2" sketch:type="MSShapeGroup"></path>
            </g>
        </g>
    </g>
</svg>